<?xml version="1.0" encoding="UTF-8" standalone="no"?>
<!-- Created with Inkscape (http://www.inkscape.org/) -->

<svg
   xmlns:dc="http://purl.org/dc/elements/1.1/"
   xmlns:cc="http://creativecommons.org/ns#"
   xmlns:rdf="http://www.w3.org/1999/02/22-rdf-syntax-ns#"
   xmlns:svg="http://www.w3.org/2000/svg"
   xmlns="http://www.w3.org/2000/svg"
   xmlns:sodipodi="http://sodipodi.sourceforge.net/DTD/sodipodi-0.dtd"
   xmlns:inkscape="http://www.inkscape.org/namespaces/inkscape"
   width="512"
   height="512"
   viewBox="0 0 135.46666 135.46666"
   version="1.1"
   id="svg8"
   inkscape:version="0.92.4 (33fec40, 2019-01-16)"
   sodipodi:docname="nekonium.svg">
  <defs
     id="defs2">
    <linearGradient
       id="linearGradient3766"
       spreadMethod="pad"
       gradientTransform="matrix(-1666.2788,-1371.7338,-1371.7338,1666.2788,903.69879,748.24677)"
       gradientUnits="userSpaceOnUse"
       y2="0"
       x2="1"
       y1="0"
       x1="0">
      <stop
         id="stop3756"
         offset="0"
         style="stop-opacity:1;stop-color:#000000" />
      <stop
         id="stop3758"
         offset="0.24"
         style="stop-opacity:1;stop-color:#080808" />
      <stop
         id="stop3760"
         offset="0.5"
         style="stop-opacity:1;stop-color:#666666" />
      <stop
         id="stop3762"
         offset="0.76"
         style="stop-opacity:1;stop-color:#080808" />
      <stop
         id="stop3764"
         offset="1"
         style="stop-opacity:1;stop-color:#000000" />
    </linearGradient>
    <linearGradient
       id="linearGradient3796"
       spreadMethod="pad"
       gradientTransform="matrix(2499.5386,2057.656,2057.656,-2499.5386,-713.44299,-410.26138)"
       gradientUnits="userSpaceOnUse"
       y2="0"
       x2="1"
       y1="0"
       x1="0">
      <stop
         id="stop3782"
         offset="0"
         style="stop-opacity:1;stop-color:#666666" />
      <stop
         id="stop3784"
         offset="0.17333"
         style="stop-opacity:1;stop-color:#080808" />
      <stop
         id="stop3786"
         offset="0.33333"
         style="stop-opacity:1;stop-color:#000000" />
      <stop
         id="stop3788"
         offset="0.49333"
         style="stop-opacity:1;stop-color:#080808" />
      <stop
         id="stop3790"
         offset="0.66667"
         style="stop-opacity:1;stop-color:#666666" />
      <stop
         id="stop3792"
         offset="0.84"
         style="stop-opacity:1;stop-color:#080808" />
      <stop
         id="stop3794"
         offset="1"
         style="stop-opacity:1;stop-color:#000000" />
    </linearGradient>
    <linearGradient
       id="linearGradient3826"
       spreadMethod="pad"
       gradientTransform="matrix(-2057.6802,2499.5684,2499.5684,2057.6802,1436.8668,-713.25934)"
       gradientUnits="userSpaceOnUse"
       y2="0"
       x2="1"
       y1="0"
       x1="0">
      <stop
         id="stop3812"
         offset="0"
         style="stop-opacity:1;stop-color:#f4b183" />
      <stop
         id="stop3814"
         offset="0.17333"
         style="stop-opacity:1;stop-color:#ee8137" />
      <stop
         id="stop3816"
         offset="0.33333"
         style="stop-opacity:1;stop-color:#b0500f" />
      <stop
         id="stop3818"
         offset="0.49333"
         style="stop-opacity:1;stop-color:#ee8137" />
      <stop
         id="stop3820"
         offset="0.66667"
         style="stop-opacity:1;stop-color:#f4b183" />
      <stop
         id="stop3822"
         offset="0.84"
         style="stop-opacity:1;stop-color:#ee8137" />
      <stop
         id="stop3824"
         offset="1"
         style="stop-opacity:1;stop-color:#b0500f" />
    </linearGradient>
    <linearGradient
       id="linearGradient3856"
       spreadMethod="pad"
       gradientTransform="matrix(2057.5906,-2499.5212,-2499.5212,-2057.5906,-407.53387,1737.1064)"
       gradientUnits="userSpaceOnUse"
       y2="0"
       x2="1"
       y1="0"
       x1="0">
      <stop
         id="stop3842"
         offset="0"
         style="stop-opacity:1;stop-color:#f4b183" />
      <stop
         id="stop3844"
         offset="0.17333"
         style="stop-opacity:1;stop-color:#ee8137" />
      <stop
         id="stop3846"
         offset="0.33333"
         style="stop-opacity:1;stop-color:#b0500f" />
      <stop
         id="stop3848"
         offset="0.49333"
         style="stop-opacity:1;stop-color:#ee8137" />
      <stop
         id="stop3850"
         offset="0.66667"
         style="stop-opacity:1;stop-color:#f4b183" />
      <stop
         id="stop3852"
         offset="0.84"
         style="stop-opacity:1;stop-color:#ee8137" />
      <stop
         id="stop3854"
         offset="1"
         style="stop-opacity:1;stop-color:#b0500f" />
    </linearGradient>
    <clipPath
       id="clipPath3866"
       clipPathUnits="userSpaceOnUse">
      <path
         inkscape:connector-curvature="0"
         id="path3864"
         d="M 0,1024 H 1024 V 0 H 0 Z" />
    </clipPath>
  </defs>
  <sodipodi:namedview
     id="base"
     pagecolor="#ffffff"
     bordercolor="#666666"
     borderopacity="1.0"
     inkscape:pageopacity="0.0"
     inkscape:pageshadow="2"
     inkscape:zoom="0.98994949"
     inkscape:cx="269.70176"
     inkscape:cy="151.12698"
     inkscape:document-units="mm"
     inkscape:current-layer="g3740"
     showgrid="false"
     inkscape:window-width="852"
     inkscape:window-height="588"
     inkscape:window-x="361"
     inkscape:window-y="408"
     inkscape:window-maximized="0"
     units="px" />
  <metadata
     id="metadata5">
    <rdf:RDF>
      <cc:Work
         rdf:about="">
        <dc:format>image/svg+xml</dc:format>
        <dc:type
           rdf:resource="http://purl.org/dc/dcmitype/StillImage" />
        <dc:title></dc:title>
      </cc:Work>
    </rdf:RDF>
  </metadata>
  <g
     inkscape:label="Layer 1"
     inkscape:groupmode="layer"
     id="layer1"
     transform="translate(0,-161.53337)">
    <g
       transform="matrix(0.13211342,0,0,-0.13211342,0.05040116,296.79764)"
       inkscape:label="nekonium-logo"
       id="g3740">
      <g
         id="g3744">
        <g
           id="g3746">
          <g
             id="g3752">
            <g
               id="g3754">
              <path
                 inkscape:connector-curvature="0"
                 id="path3768"
                 style="fill:url(#linearGradient3766);stroke:none"
                 d="M 976.593,574.124 C 922.673,513.625 859.063,452.336 787.661,393.574 v 0 C 502.159,158.581 200.857,52.957 114.711,157.633 v 0 C 82.38,196.861 84.907,260.15 115.764,336.235 v 0 l 37.123,74.242 -50.392,-73.716 C 34.989,225.187 14.243,130.727 56.21,79.81 v 0 c 83.882,-101.884 386.814,8.899 676.583,247.42 v 0 c 108.684,89.459 200.096,184.183 267.444,273.011 v 0 l 11.478,16.795 z" />
            </g>
          </g>
        </g>
      </g>
      <g
         id="g3770">
        <g
           id="g3772">
          <g
             id="g3778">
            <g
               id="g3780">
              <path
                 inkscape:connector-curvature="0"
                 id="path3798"
                 style="fill:url(#linearGradient3796);stroke:none"
                 d="M 290.637,696.649 C 181.954,607.19 90.594,512.467 23.194,423.64 v 0 l -11.48,-16.797 35.123,42.913 c 53.92,60.499 117.582,121.788 188.931,180.497 v 0 C 521.273,865.3 822.573,970.923 908.771,866.247 v 0 C 941.05,827.02 938.523,763.73 907.718,687.593 v 0 l -37.122,-74.189 50.392,73.715 c 67.452,111.52 88.199,206.035 46.284,256.95 v 0 c -21.154,25.695 -56.267,37.864 -101.563,37.869 v 0 C 731.401,981.951 507.366,875.017 290.637,696.649" />
            </g>
          </g>
        </g>
      </g>
      <g
         id="g3800">
        <g
           id="g3802">
          <g
             id="g3808">
            <g
               id="g3810">
              <path
                 inkscape:connector-curvature="0"
                 id="path3828"
                 style="fill:url(#linearGradient3826);stroke:none"
                 d="M 82.485,967.448 C -19.405,883.57 91.384,580.653 329.971,290.847 v 0 C 419.434,182.223 514.111,90.815 602.995,23.419 v 0 L 619.793,11.94 576.825,47.059 C 516.322,101.03 455.083,164.636 396.319,236.034 v 0 C 161.312,521.47 55.631,822.755 160.312,908.95 v 0 c 39.281,32.276 102.522,29.801 178.663,-1.053 v 0 l 74.193,-37.122 -73.719,50.39 C 266.968,965 201.679,989.132 150.865,989.136 v 0 c -27.373,0.003 -50.535,-6.996 -68.38,-21.688" />
            </g>
          </g>
        </g>
      </g>
      <g
         id="g3830">
        <g
           id="g3832">
          <g
             id="g3838">
            <g
               id="g3840">
              <path
                 inkscape:connector-curvature="0"
                 id="path3858"
                 style="fill:url(#linearGradient3856);stroke:none"
                 d="M 452.45,976.82 C 512.952,922.85 574.245,859.244 633.01,787.846 v 0 C 868.016,502.41 973.697,201.125 869.016,114.931 v 0 C 829.734,82.602 766.493,85.129 690.352,115.983 v 0 l -74.245,37.121 73.718,-50.389 C 801.404,35.266 895.87,14.467 946.79,56.433 v 0 c 101.942,83.877 -8.847,386.794 -247.433,676.548 v 0 C 609.892,841.657 515.164,933.065 426.333,1000.409 v 0 l -16.798,11.531 z" />
            </g>
          </g>
        </g>
      </g>
      <g
         id="g3860">
        <g
           clip-path="url(#clipPath3866)"
           id="g3862">
          <g
             transform="translate(551.1289,534.3706)"
             id="g3868">
            <path
               inkscape:connector-curvature="0"
               id="path3870"
               style="fill:#000000;fill-opacity:1;fill-rule:evenodd;stroke:none"
               d="M 0,0 -47.918,-51.601 -95.835,0 Z" />
          </g>
          <g
             transform="translate(503.2881,498.0391)"
             id="g3872">
            <path
               inkscape:connector-curvature="0"
               id="path3874"
               style="fill:none;stroke:#000000;stroke-width:2.20000005;stroke-linecap:butt;stroke-linejoin:miter;stroke-miterlimit:10;stroke-dasharray:none;stroke-opacity:1"
               d="M 0,0 V -45.574" />
          </g>
          <g
             transform="translate(503.4424,464.1279)"
             id="g3876">
            <path
               inkscape:connector-curvature="0"
               id="path3878"
               style="fill:#000000;fill-opacity:1;fill-rule:evenodd;stroke:none"
               d="M 0,0 46.864,-52.654 H 33.437 L 0,-15.06 -33.437,-52.654 h -13.427 z" />
          </g>
          <g
             transform="translate(393.0537,439.2783)"
             id="g3880">
            <path
               inkscape:connector-curvature="0"
               id="path3882"
               style="fill:#000000;fill-opacity:1;fill-rule:evenodd;stroke:none"
               d="m 0,0 v -1.159 l -108.157,-26.959 -0.21,1.106 z m 222.421,0 108.367,-27.012 -0.211,-1.106 -108.156,26.959 z M 330.577,82.455 330.788,81.35 222.421,54.338 v 1.158 z m -438.734,0 L 0,55.496 V 54.338 L -108.367,81.35 Z" />
          </g>
          <g
             transform="translate(393.0537,439.2783)"
             id="g3884">
            <path
               inkscape:connector-curvature="0"
               id="path3886"
               style="fill:none;stroke:#000000;stroke-width:0.80000001;stroke-linecap:butt;stroke-linejoin:round;stroke-miterlimit:10;stroke-dasharray:none;stroke-opacity:1"
               d="m 0,0 v -1.159 l -108.157,-26.959 -0.21,1.106 z m 222.421,0 108.367,-27.012 -0.211,-1.106 -108.156,26.959 z M 330.577,82.455 330.788,81.35 222.421,54.338 v 1.158 z m -438.734,0 L 0,55.496 V 54.338 L -108.367,81.35 Z" />
          </g>
          <g
             transform="translate(315.9121,607.77)"
             id="g3888">
            <path
               inkscape:connector-curvature="0"
               id="path3890"
               style="fill:#000000;fill-opacity:1;fill-rule:evenodd;stroke:none"
               d="M 0,0 C -0.105,27.801 20.43,50.389 45.811,50.495 71.191,50.547 91.833,28.064 91.938,0.263 92.043,-27.485 71.507,-50.126 46.126,-50.179 20.746,-50.285 0.105,-27.801 0,0" />
          </g>
          <g
             transform="translate(597.4658,607.5063)"
             id="g3892">
            <path
               inkscape:connector-curvature="0"
               id="path3894"
               style="fill:#000000;fill-opacity:1;fill-rule:evenodd;stroke:none"
               d="M 0,0 C -0.105,27.696 20.378,50.232 45.706,50.285 71.034,50.39 91.623,28.012 91.728,0.264 91.833,-27.432 71.35,-49.968 46.022,-50.021 20.694,-50.126 0.053,-27.696 0,0" />
          </g>
        </g>
      </g>
    </g>
  </g>
</svg>
